<svg width="24" height="24" viewBox="0 0 24 24" fill="none" xmlns="http://www.w3.org/2000/svg">
<path fill-rule="evenodd" clip-rule="evenodd" d="M7.38522 11.184C6.82345 11.184 6.35759 11.592 6.35759 12.084C6.35759 12.576 6.80974 12.984 7.38522 12.972H14.8798V11.184H7.38522ZM14.8937 11.1722V1.032C14.88 0.456 14.3594 0 13.7017 0C5.6314 0 0 4.932 0 12C0 19.068 5.6314 24 13.7017 24C14.3457 24 14.88 23.544 14.88 22.968V12.9722H20.4838L18.3463 14.8442C17.949 15.1922 17.949 15.7682 18.3463 16.1162C18.5518 16.2962 18.8122 16.3802 19.0725 16.3802C19.3328 16.3802 19.5932 16.2962 19.7987 16.1162L23.69 12.6962C24.101 12.3602 24.101 11.7962 23.7037 11.4482L19.8124 8.02819C19.415 7.68019 18.7574 7.68019 18.36 8.02819C17.9627 8.37619 17.9627 8.95219 18.36 9.30019L20.4975 11.1722H14.8937Z" fill="#1F2937"/>
</svg>
