<svg width="21" height="22" viewBox="0 0 21 22" fill="none" xmlns="http://www.w3.org/2000/svg">
<path d="M20.8662 11.1218C20.8662 10.2272 20.7951 9.57443 20.6414 8.89746H10.646V12.9351H16.5131C16.3948 13.9385 15.7561 15.4496 14.3366 16.4651L14.3167 16.6002L17.4771 19.1023L17.696 19.1247C19.7069 17.2267 20.8662 14.4341 20.8662 11.1218Z" fill="#3E82F1"/>
<path d="M10.6461 21.76C13.5205 21.76 15.9335 20.7929 17.6961 19.1247L14.3367 16.465C13.4377 17.1058 12.2311 17.553 10.6461 17.553C7.83082 17.553 5.4414 15.6551 4.58964 13.0319L4.46479 13.0427L1.1786 15.6418L1.13562 15.7639C2.88628 19.318 6.48228 21.76 10.6461 21.76Z" fill="#34A853"/>
<path d="M4.58957 13.0317C4.36482 12.3547 4.23476 11.6294 4.23476 10.8799C4.23476 10.1303 4.36482 9.40501 4.57774 8.72804L4.57179 8.58387L1.24441 5.94299L1.13555 5.99591C0.414016 7.47078 0 9.12699 0 10.8799C0 12.6328 0.414016 14.2889 1.13555 15.7638L4.58957 13.0317Z" fill="#FBBC05"/>
<path d="M10.6461 4.20691C12.6451 4.20691 13.9936 5.0894 14.7625 5.82687L17.767 2.82881C15.9218 1.07592 13.5205 0 10.6461 0C6.48228 0 2.88628 2.44194 1.13562 5.99605L4.57782 8.72819C5.4414 6.1049 7.83082 4.20691 10.6461 4.20691Z" fill="#EB4335"/>
</svg>
