<svg xmlns="http://www.w3.org/2000/svg" width="257" height="149" viewBox="0 0 257 149" fill="none">
  <!-- Nueva línea agregada en la parte superior -->
  <path d="M0 77.1994C1.09234 77.1994 5.27523 76.7804 9.92278 84.4769C23.8147 107.482 38.0955 140.301 59.3962 99.9679C86.0221 49.5517 98.3109 -26.8858 111.283 11.333C124.254 49.5517 137.128 100.313 175.137 73.5C214.828 45.5 217.221 85.1346 223.248 95.9021C223.84 96.9594 233.039 119.944 254.519 57.5C255.035 56 256.008 55 257 55" stroke="#3D7BFF" stroke-width="2"/>
  <!-- Forma existente -->
  <path d="M59.3962 98.9679C38.0955 139.301 23.8147 106.482 9.92278 83.4769C5.27523 75.7804 1.09234 76.1994 0 76.1994V148.5H257V54C256.008 54 255.035 55 254.519 56.5C233.039 118.944 223.84 95.9594 223.248 94.9021C217.221 84.1346 214.828 44.5 175.137 72.5C137.128 99.3134 124.254 48.5517 111.283 10.333C98.311 -27.8858 86.0221 48.5517 59.3962 98.9679Z" fill="url(#paint0_linear_959_2568)"/>
  <defs>
    <linearGradient id="paint0_linear_959_2568" x1="128.5" y1="148.5" x2="128.5" y2="0" gradientUnits="userSpaceOnUse">
      <stop stop-color="#F3F7FF" stop-opacity="0.46"/>
      <stop offset="1" stop-color="#F3F7FF"/>
    </linearGradient>
  </defs>
</svg>
