<svg width="124" height="32" viewBox="0 0 124 32" fill="none" xmlns="http://www.w3.org/2000/svg">
<path d="M35.8204 24.5697C34.5143 23.8703 33.4873 22.8972 32.7399 21.6503C31.9921 20.4028 31.6155 19.0067 31.6095 17.4608C31.6032 15.9157 31.9682 14.516 32.7061 13.2628C33.4433 12.0096 34.4623 11.0281 35.7626 10.3179C37.0631 9.60815 38.5238 9.25012 40.1453 9.2435C41.7664 9.23688 43.2301 9.5829 44.5364 10.2824C45.8426 10.9817 46.8694 11.9515 47.617 13.1907C48.3644 14.4304 48.7416 15.8306 48.7478 17.3913C48.754 18.9522 48.3881 20.3557 47.6508 21.6011C46.9133 22.8468 45.8946 23.8242 44.5943 24.5343C43.2937 25.2442 41.8331 25.6027 40.212 25.6094C38.5903 25.6154 37.1265 25.2691 35.8204 24.5697ZM43.0621 22.2901C43.9088 21.8094 44.5729 21.1399 45.0541 20.2818C45.5357 19.4238 45.7742 18.4642 45.77 17.4034C45.7656 16.3429 45.5194 15.3851 45.031 14.5311C44.5427 13.6772 43.8732 13.0128 43.0227 12.5389C42.172 12.0652 41.2167 11.8299 40.156 11.8345C39.095 11.8388 38.1414 12.0814 37.295 12.5619C36.4479 13.0429 35.784 13.7129 35.3029 14.5706C34.8214 15.4285 34.5827 16.3883 34.587 17.4486C34.5914 18.5098 34.8375 19.4674 35.326 20.3211C35.8139 21.1754 36.4836 21.8395 37.334 22.3133C38.1848 22.7869 39.1402 23.0225 40.2013 23.0179C41.2617 23.0135 42.2152 22.7707 43.0621 22.2901Z" fill="#8F96A5"/>
<path d="M59.9473 13.0119C60.8811 13.5236 61.6146 14.2479 62.1494 15.1852C62.6834 16.123 62.9529 17.2048 62.9578 18.4325C62.963 19.6597 62.702 20.7487 62.1758 21.6971C61.6489 22.6466 60.9212 23.3808 59.9916 23.8996C59.0617 24.4187 58.0055 24.6806 56.8236 24.6855C55.1871 24.6921 53.8892 24.152 52.9298 23.0647L52.9535 28.9517L50.1123 28.9632L50.0452 12.4154L52.7499 12.4045L52.7563 13.9957C53.2234 13.4184 53.8017 12.9839 54.49 12.6929C55.1782 12.4024 55.9393 12.2555 56.7727 12.2521C57.9551 12.2472 59.0131 12.5007 59.9473 13.0119ZM59.0709 21.1983C59.7422 20.4989 60.0758 19.5804 60.071 18.4441C60.0665 17.3076 59.7253 16.3924 59.0486 15.698C58.3714 15.0035 57.5103 14.6585 56.4645 14.6627C55.7825 14.6654 55.1697 14.8236 54.6253 15.1362C54.0811 15.449 53.6508 15.8942 53.3353 16.471C53.0194 17.0487 52.8626 17.7158 52.8659 18.4734C52.8689 19.2308 53.031 19.8972 53.3515 20.4716C53.6718 21.0464 54.1056 21.4878 54.6522 21.7958C55.1991 22.1046 55.8131 22.2572 56.495 22.2545C57.541 22.2503 58.3995 21.8985 59.0709 21.1983Z" fill="#8F96A5"/>
<path d="M76.4007 19.287L66.8767 19.3257C67.047 20.2191 67.4858 20.9256 68.1922 21.4455C68.8987 21.9654 69.7753 22.2234 70.8207 22.2191C72.1539 22.2137 73.251 21.7698 74.1111 20.8872L75.6412 22.6313C75.0982 23.2852 74.4102 23.7807 73.5787 24.1171C72.7463 24.4538 71.8079 24.6241 70.7621 24.6286C69.4286 24.634 68.2529 24.3735 67.2359 23.847C66.2182 23.321 65.431 22.5853 64.874 21.6403C64.3169 20.6956 64.0361 19.6248 64.0311 18.4274C64.0263 17.2456 64.2911 16.1801 64.8253 15.2309C65.3594 14.2815 66.1029 13.5398 67.0551 13.0055C68.0074 12.4711 69.0822 12.2016 70.2797 12.1968C71.4616 12.1919 72.5195 12.449 73.4535 12.9682C74.3877 13.4869 75.1177 14.2193 75.6445 15.1638C76.1712 16.109 76.4372 17.203 76.442 18.4454C76.4435 18.6427 76.4293 18.9231 76.4007 19.287ZM67.9856 15.2866C67.3591 15.8272 66.9789 16.5447 66.8463 17.4394L73.7337 17.4113C73.6085 16.533 73.2348 15.8221 72.6109 15.2792C71.9871 14.7362 71.2133 14.4665 70.2893 14.4702C69.3802 14.4739 68.612 14.7463 67.9856 15.2866Z" fill="#8F96A5"/>
<path d="M88.4326 13.4646C89.3602 14.355 89.8281 15.6789 89.8352 17.4364L89.8636 24.3921L87.0219 24.4037L86.995 17.8118C86.9908 16.7514 86.7375 15.9532 86.2352 15.417C85.7328 14.8815 85.0196 14.6148 84.0954 14.6186C83.0498 14.6228 82.2249 14.941 81.6216 15.5722C81.018 16.2035 80.7187 17.1099 80.7237 18.2918L80.7484 24.4286L77.9069 24.4405L77.8577 12.3024L80.5628 12.2915L80.5691 13.8603C81.0362 13.2977 81.6256 12.8709 82.3367 12.5801C83.0475 12.2895 83.85 12.1422 84.7443 12.1385C86.2751 12.1324 87.5047 12.5745 88.4326 13.4646Z" fill="#8F96A5"/>
<path d="M91.8785 7.51786L94.72 7.5061L94.7884 24.3722L91.9469 24.3836L91.8785 7.51786Z" fill="#8F96A5"/>
<path d="M106.668 13.3338C107.618 14.1863 108.097 15.476 108.104 17.2034L108.133 24.3177L105.45 24.3288L105.445 22.8511C105.098 23.3829 104.604 23.7905 103.961 24.0728C103.318 24.3558 102.542 24.4993 101.633 24.503C100.724 24.5068 99.9274 24.3542 99.2444 24.0468C98.5607 23.7392 98.0326 23.3092 97.6593 22.7572C97.2851 22.2062 97.0977 21.5819 97.0948 20.8847C97.0904 19.7936 97.492 18.9166 98.3003 18.2544C99.1079 17.5917 100.383 17.2574 102.126 17.2499L105.263 17.2373L105.262 17.0553C105.258 16.2069 105.002 15.5562 104.493 15.1036C103.983 14.6509 103.228 14.4269 102.228 14.431C101.546 14.4337 100.876 14.5421 100.218 14.7569C99.5593 14.9723 99.0038 15.2699 98.5507 15.6508L97.4284 13.5866C98.0628 13.0996 98.8265 12.725 99.7195 12.4634C100.612 12.2024 101.559 12.0699 102.559 12.0659C104.348 12.0587 105.717 12.4816 106.668 13.3338ZM104.111 21.936C104.663 21.6081 105.051 21.1404 105.276 20.5335L105.271 19.1244L102.339 19.1362C100.702 19.1428 99.8857 19.6844 99.8902 20.7598C99.892 21.2751 100.099 21.6837 100.509 21.9849C100.919 22.2862 101.488 22.4354 102.215 22.4325C102.927 22.4295 103.559 22.2646 104.111 21.936Z" fill="#8F96A5"/>
<path d="M120.587 12.7655C121.521 13.2772 122.254 14.0015 122.789 14.9389C123.322 15.8767 123.592 16.9584 123.597 18.1861C123.603 19.4134 123.341 20.5025 122.815 21.4507C122.289 22.4003 121.561 23.1348 120.631 23.6534C119.701 24.1725 118.645 24.4345 117.463 24.4391C116.629 24.4425 115.867 24.301 115.177 24.0164C114.486 23.7316 113.904 23.3022 113.433 22.7274L113.439 24.2964L110.734 24.3074L110.666 7.44152L113.507 7.42993L113.532 13.6354C114.015 13.1033 114.586 12.699 115.243 12.4237C115.902 12.1479 116.624 12.0089 117.412 12.0059C118.594 12.0012 119.652 12.2545 120.587 12.7655ZM119.711 20.952C120.382 20.2526 120.715 19.3341 120.711 18.1978C120.706 17.0611 120.365 16.1463 119.688 15.4517C119.011 14.757 118.15 14.4122 117.104 14.4162C116.422 14.4191 115.809 14.5774 115.265 14.8898C114.72 15.2025 114.29 15.6477 113.974 16.2245C113.659 16.8022 113.502 17.4695 113.506 18.2269C113.509 18.9845 113.67 19.6507 113.99 20.2253C114.311 20.7999 114.745 21.2414 115.292 21.5495C115.838 21.8582 116.453 22.0109 117.135 22.008C118.18 22.004 119.039 21.6522 119.711 20.952Z" fill="#8F96A5"/>
<path d="M9.68167 12.6173C12.407 10.1663 16.5458 6.66549 16.5458 6.66549C19.1479 4.76355 17.8215 12.0796 17.6208 13.4793C17.4203 14.8791 16.9668 15.1998 16.9668 15.1998C15.3005 17.249 10.2179 20.5605 6.09939 23.2213C1.98067 25.8824 1.28716 26.8332 1.28716 26.8332C-2.21746 23.1566 6.95649 15.0683 9.68167 12.6173ZM19.4263 0.0835798C19.4263 0.0835798 19.9032 1.15949 20.1483 6.05696C20.3931 10.9544 20.7196 17.0117 21.6613 19.4797C21.6613 19.4797 21.7125 20.0321 22.8239 20.9058C23.9362 21.7797 29.6088 26.5862 29.2627 23.382C29.2627 23.382 28.3005 18.0472 27.5406 14.4615C26.7805 10.8762 24.3629 -1.11301 19.4263 0.0835798ZM33.8907 29.0823C33.8907 29.0823 32.7206 28.9571 28.3567 26.7211C23.9924 24.4844 18.5841 21.7386 15.9758 21.3203C15.9758 21.3203 15.4716 21.0881 14.1594 21.614C12.8464 22.1399 5.84749 24.6495 8.79557 25.9519C8.79557 25.9519 13.8969 27.7858 17.3819 28.9203C20.8674 30.0552 32.4591 33.9558 33.8907 29.0823Z" fill="url(#paint0_linear_247_363)"/>
<defs>
<linearGradient id="paint0_linear_247_363" x1="-0.369021" y1="20.5392" x2="31.1443" y2="14.574" gradientUnits="userSpaceOnUse">
<stop offset="0.0014" stop-color="#3A23FF"/>
<stop offset="0.1358" stop-color="#3829FF"/>
<stop offset="0.3154" stop-color="#313AFF"/>
<stop offset="0.5207" stop-color="#2556FF"/>
<stop offset="0.7449" stop-color="#167DFF"/>
<stop offset="0.9822" stop-color="#02AEFF"/>
<stop offset="1" stop-color="#00B2FF"/>
</linearGradient>
</defs>
</svg>
