<svg width="124" height="32" viewBox="0 0 124 32" fill="none" xmlns="http://www.w3.org/2000/svg">
<path d="M35.3204 25.0714C34.0143 24.372 32.9873 23.3989 32.2399 22.152C31.4921 20.9045 31.1155 19.5084 31.1095 17.9625C31.1032 16.4174 31.4682 15.0177 32.2061 13.7645C32.9433 12.5113 33.9623 11.5298 35.2626 10.8197C36.5631 10.1099 38.0238 9.75183 39.6453 9.74521C41.2664 9.73859 42.7301 10.0846 44.0364 10.7841C45.3426 11.4834 46.3694 12.4532 47.117 13.6924C47.8644 14.9321 48.2416 16.3323 48.2478 17.893C48.254 19.4539 47.8881 20.8574 47.1508 22.1028C46.4133 23.3485 45.3946 24.3259 44.0943 25.036C42.7937 25.7459 41.3331 26.1044 39.712 26.1111C38.0903 26.1171 36.6265 25.7708 35.3204 25.0714ZM42.5621 22.7918C43.4088 22.3111 44.0729 21.6416 44.5541 20.7835C45.0357 19.9255 45.2742 18.9659 45.27 17.9051C45.2656 16.8446 45.0194 15.8868 44.531 15.0328C44.0427 14.1789 43.3732 13.5145 42.5227 13.0406C41.672 12.5669 40.7167 12.3316 39.656 12.3362C38.595 12.3405 37.6414 12.5831 36.795 13.0636C35.9479 13.5447 35.284 14.2146 34.8029 15.0723C34.3214 15.9303 34.0827 16.89 34.087 17.9504C34.0914 19.0116 34.3375 19.9691 34.826 20.8228C35.3139 21.6771 35.9836 22.3412 36.834 22.815C37.6848 23.2886 38.6402 23.5242 39.7013 23.5196C40.7617 23.5152 41.7152 23.2724 42.5621 22.7918Z" fill="white"/>
<path d="M59.4473 13.5137C60.3811 14.0254 61.1146 14.7497 61.6494 15.6871C62.1834 16.6248 62.4529 17.7067 62.4578 18.9343C62.463 20.1615 62.202 21.2505 61.6758 22.1989C61.1489 23.1485 60.4212 23.8826 59.4916 24.4015C58.5617 24.9205 57.5055 25.1824 56.3236 25.1873C54.6871 25.1939 53.3892 24.6538 52.4298 23.5665L52.4535 29.4535L49.6123 29.4651L49.5452 12.9172L52.2499 12.9063L52.2563 14.4975C52.7234 13.9202 53.3017 13.4857 53.99 13.1947C54.6782 12.9043 55.4393 12.7574 56.2727 12.754C57.4551 12.749 58.5131 13.0026 59.4473 13.5137ZM58.5709 21.7002C59.2422 21.0007 59.5758 20.0822 59.571 18.9459C59.5665 17.8094 59.2253 16.8942 58.5486 16.1998C57.8714 15.5053 57.0103 15.1603 55.9645 15.1645C55.2825 15.1672 54.6697 15.3254 54.1253 15.6381C53.5811 15.9508 53.1508 16.396 52.8353 16.9728C52.5194 17.5505 52.3626 18.2177 52.3659 18.9752C52.3689 19.7327 52.531 20.399 52.8515 20.9734C53.1718 21.5482 53.6056 21.9897 54.1522 22.2976C54.6991 22.6065 55.3131 22.759 55.995 22.7563C57.041 22.7521 57.8995 22.4003 58.5709 21.7002Z" fill="white"/>
<path d="M75.9007 19.7889L66.3767 19.8277C66.547 20.721 66.9858 21.4276 67.6922 21.9475C68.3987 22.4674 69.2753 22.7253 70.3207 22.7211C71.6539 22.7157 72.751 22.2718 73.6111 21.3892L75.1412 23.1333C74.5982 23.7872 73.9102 24.2827 73.0787 24.619C72.2463 24.9557 71.3079 25.1261 70.2621 25.1305C68.9286 25.1359 67.7529 24.8754 66.7359 24.3489C65.7182 23.8229 64.931 23.0873 64.374 22.1422C63.8169 21.1975 63.5361 20.1268 63.5311 18.9294C63.5263 17.7475 63.7911 16.682 64.3253 15.7328C64.8594 14.7834 65.6029 14.0418 66.5551 13.5074C67.5074 12.9731 68.5822 12.7036 69.7797 12.6988C70.9616 12.6938 72.0195 12.951 72.9535 13.4701C73.8877 13.9888 74.6177 14.7212 75.1445 15.6658C75.6712 16.6109 75.9372 17.7049 75.942 18.9473C75.9435 19.1446 75.9293 19.4251 75.9007 19.7889ZM67.4856 15.7885C66.8591 16.3291 66.4789 17.0466 66.3463 17.9413L73.2337 17.9133C73.1085 17.0349 72.7348 16.3241 72.1109 15.7811C71.4871 15.2382 70.7133 14.9684 69.7893 14.9722C68.8802 14.9758 68.112 15.2483 67.4856 15.7885Z" fill="white"/>
<path d="M87.9326 13.9665C88.8602 14.857 89.3281 16.1809 89.3352 17.9383L89.3636 24.894L86.5219 24.9056L86.495 18.3137C86.4908 17.2534 86.2375 16.4551 85.7352 15.919C85.2328 15.3835 84.5196 15.1168 83.5954 15.1205C82.5498 15.1248 81.7249 15.4429 81.1216 16.0742C80.518 16.7054 80.2187 17.6118 80.2237 18.7937L80.2484 24.9305L77.4069 24.9425L77.3577 12.8043L80.0628 12.7934L80.0691 14.3622C80.5362 13.7997 81.1256 13.3729 81.8367 13.0821C82.5475 12.7914 83.35 12.6442 84.2443 12.6404C85.7751 12.6343 87.0047 13.0765 87.9326 13.9665Z" fill="white"/>
<path d="M91.3785 8.01957L94.22 8.00781L94.2884 24.8739L91.4469 24.8853L91.3785 8.01957Z" fill="white"/>
<path d="M106.168 13.8356C107.118 14.6881 107.597 15.9779 107.604 17.7052L107.633 24.8196L104.95 24.8306L104.945 23.353C104.598 23.8847 104.104 24.2924 103.461 24.5746C102.818 24.8576 102.042 25.0011 101.133 25.0049C100.224 25.0086 99.4274 24.8561 98.7444 24.5486C98.0607 24.241 97.5326 23.811 97.1593 23.259C96.7851 22.7081 96.5977 22.0838 96.5948 21.3865C96.5904 20.2955 96.992 19.4184 97.8003 18.7562C98.6079 18.0936 99.8833 17.7592 101.626 17.7517L104.763 17.7391L104.762 17.5571C104.758 16.7087 104.502 16.0581 103.993 15.6054C103.483 15.1527 102.728 14.9288 101.728 14.9328C101.046 14.9355 100.376 15.044 99.7177 15.2588C99.0593 15.4741 98.5038 15.7717 98.0507 16.1526L96.9284 14.0885C97.5628 13.6014 98.3265 13.2268 99.2195 12.9653C100.112 12.7042 101.059 12.5717 102.059 12.5677C103.848 12.5606 105.217 12.9835 106.168 13.8356ZM103.611 22.4378C104.163 22.1099 104.551 21.6422 104.776 21.0354L104.771 19.6262L101.839 19.638C100.202 19.6446 99.3857 20.1863 99.3902 21.2617C99.392 21.7769 99.5985 22.1856 100.009 22.4867C100.419 22.7881 100.988 22.9372 101.715 22.9343C102.427 22.9313 103.059 22.7664 103.611 22.4378Z" fill="white"/>
<path d="M120.087 13.2672C121.021 13.7789 121.754 14.5032 122.289 15.4406C122.822 16.3784 123.092 17.4601 123.097 18.6878C123.103 19.9151 122.841 21.0042 122.315 21.9524C121.789 22.902 121.061 23.6365 120.131 24.1552C119.201 24.6742 118.145 24.9363 116.963 24.9408C116.129 24.9442 115.367 24.8027 114.677 24.5182C113.986 24.2333 113.404 23.8039 112.933 23.2291L112.939 24.7981L110.234 24.8091L110.166 7.94323L113.007 7.93164L113.032 14.1371C113.515 13.605 114.086 13.2007 114.743 12.9254C115.402 12.6496 116.124 12.5106 116.912 12.5076C118.094 12.5029 119.152 12.7562 120.087 13.2672ZM119.211 21.4537C119.882 20.7543 120.215 19.8358 120.211 18.6995C120.206 17.5628 119.865 16.648 119.188 15.9534C118.511 15.2587 117.65 14.9139 116.604 14.9179C115.922 14.9208 115.309 15.0792 114.765 15.3915C114.22 15.7042 113.79 16.1494 113.474 16.7262C113.159 17.3039 113.002 17.9712 113.006 18.7287C113.009 19.4862 113.17 20.1524 113.49 20.727C113.811 21.3016 114.245 21.7431 114.792 22.0512C115.338 22.3599 115.953 22.5126 116.635 22.5097C117.68 22.5057 118.539 22.1539 119.211 21.4537Z" fill="white"/>
<path d="M9.18167 13.1192C11.907 10.6682 16.0458 7.16744 16.0458 7.16744C18.6479 5.2655 17.3215 12.5816 17.1208 13.9813C16.9203 15.381 16.4668 15.7018 16.4668 15.7018C14.8005 17.751 9.71793 21.0625 5.59939 23.7232C1.48067 26.3844 0.787157 27.3352 0.787157 27.3352C-2.71746 23.6585 6.45649 15.5702 9.18167 13.1192ZM18.9263 0.585533C18.9263 0.585533 19.4032 1.66144 19.6483 6.55891C19.8931 11.4564 20.2196 17.5136 21.1613 19.9817C21.1613 19.9817 21.2125 20.534 22.3239 21.4078C23.4362 22.2817 29.1088 27.0882 28.7627 23.8839C28.7627 23.8839 27.8005 18.5491 27.0406 14.9634C26.2805 11.3782 23.8629 -0.611059 18.9263 0.585533ZM33.3907 29.5843C33.3907 29.5843 32.2206 29.4591 27.8567 27.223C23.4924 24.9863 18.0841 22.2405 15.4758 21.8222C15.4758 21.8222 14.9716 21.5901 13.6594 22.1159C12.3464 22.6419 5.34749 25.1514 8.29557 26.4539C8.29557 26.4539 13.3969 28.2877 16.8819 29.4222C20.3674 30.5572 31.9591 34.4578 33.3907 29.5843Z" fill="url(#paint0_linear_247_1013)"/>
<defs>
<linearGradient id="paint0_linear_247_1013" x1="-0.869021" y1="21.0412" x2="30.6443" y2="15.0759" gradientUnits="userSpaceOnUse">
<stop offset="0.0014" stop-color="#3A23FF"/>
<stop offset="0.1358" stop-color="#3829FF"/>
<stop offset="0.3154" stop-color="#313AFF"/>
<stop offset="0.5207" stop-color="#2556FF"/>
<stop offset="0.7449" stop-color="#167DFF"/>
<stop offset="0.9822" stop-color="#02AEFF"/>
<stop offset="1" stop-color="#00B2FF"/>
</linearGradient>
</defs>
</svg>
