<svg width="145" height="136" viewBox="0 0 145 136" fill="none" xmlns="http://www.w3.org/2000/svg">
<path d="M39.6753 54.521C51.4519 43.9299 69.336 28.8025 69.336 28.8025C80.5803 20.584 74.8487 52.1977 73.9814 58.2461C73.115 64.2945 71.1555 65.6806 71.1555 65.6806C63.9551 74.5354 41.9925 88.8449 24.1957 100.342C6.39817 111.842 3.40141 115.95 3.40141 115.95C-11.7425 100.063 27.8994 65.1121 39.6753 54.521ZM81.7831 0.36116C81.7831 0.36116 83.8438 5.01033 84.9029 26.173C85.9609 47.3356 87.3717 73.5098 91.4411 84.1746C91.4411 84.1746 91.662 86.5615 96.4647 90.337C101.271 94.1133 125.783 114.883 124.287 101.037C124.287 101.037 120.13 77.9843 116.846 62.4901C113.562 46.9977 103.115 -4.80948 81.7831 0.36116ZM144.286 125.669C144.286 125.669 139.23 125.128 120.373 115.466C101.514 105.8 78.1437 93.9354 66.8731 92.1279C66.8731 92.1279 64.6943 91.1248 59.024 93.3969C53.3507 95.6698 23.1073 106.514 35.8463 112.142C35.8463 112.142 57.8898 120.066 72.9491 124.969C88.0103 129.873 138.1 146.728 144.286 125.669Z" fill="url(#paint0_linear_18_99)"/>
<defs>
<linearGradient id="paint0_linear_18_99" x1="-3.75516" y1="88.7529" x2="132.418" y2="62.9761" gradientUnits="userSpaceOnUse">
<stop offset="0.0014" stop-color="#3A23FF"/>
<stop offset="0.1358" stop-color="#3829FF"/>
<stop offset="0.3154" stop-color="#313AFF"/>
<stop offset="0.5207" stop-color="#2556FF"/>
<stop offset="0.7449" stop-color="#167DFF"/>
<stop offset="0.9822" stop-color="#02AEFF"/>
<stop offset="1" stop-color="#00B2FF"/>
</linearGradient>
</defs>
</svg>
