<svg width="22" height="22" viewBox="0 0 22 22" fill="none" xmlns="http://www.w3.org/2000/svg">
<mask id="mask0_430_1198" style="mask-type:luminance" maskUnits="userSpaceOnUse" x="0" y="0" width="22" height="22">
<path d="M8.142 20.5855C6.48808 20.0915 4.99017 19.1779 3.794 17.9335C4.17884 17.477 4.41874 16.9161 4.483 16.3226C4.54726 15.729 4.43296 15.1298 4.15473 14.6016C3.87649 14.0733 3.44698 13.6401 2.92115 13.3574C2.39532 13.0747 1.79709 12.9553 1.203 13.0145C1.06736 12.3515 0.999343 11.6766 1 11C1 9.95495 1.16 8.94695 1.458 7.99995H1.5C2.00988 8.00011 2.51139 7.87032 2.95717 7.62282C3.40295 7.37533 3.7783 7.0183 4.04777 6.58545C4.31724 6.15259 4.47194 5.6582 4.49726 5.14895C4.52259 4.6397 4.4177 4.1324 4.1925 3.67495C5.36517 2.58387 6.78277 1.79045 8.326 1.36145C8.57719 1.85465 8.95993 2.26875 9.43186 2.55793C9.90379 2.8471 10.4465 3.00009 11 2.99995C11.5535 3.00009 12.0962 2.8471 12.5682 2.55793C13.0401 2.26875 13.4228 1.85465 13.674 1.36145C15.2172 1.79045 16.6348 2.58387 17.8075 3.67495C17.5807 4.13561 17.4759 4.64677 17.5031 5.15953C17.5304 5.67228 17.6888 6.16946 17.9632 6.60346C18.2376 7.03747 18.6188 7.39378 19.0703 7.63829C19.5219 7.8828 20.0286 8.00733 20.542 7.99995C20.8464 8.97083 21.0008 9.98247 21 11C21 11.6899 20.93 12.364 20.797 13.015C20.2029 12.9558 19.6047 13.0752 19.0789 13.3579C18.553 13.6406 18.1235 14.0738 17.8453 14.6021C17.5671 15.1303 17.4528 15.7295 17.517 16.3231C17.5813 16.9166 17.8212 17.4775 18.206 17.934C17.0098 19.1782 15.5119 20.0917 13.858 20.5855C13.6638 19.9801 13.2824 19.452 12.7687 19.0774C12.2551 18.7028 11.6358 18.5009 11 18.5009C10.3643 18.5009 9.74493 18.7028 9.23129 19.0774C8.71765 19.452 8.33623 19.9801 8.142 20.5855Z" fill="white" stroke="white" stroke-width="2" stroke-linejoin="round"/>
<path d="M11 14.5C11.4596 14.5 11.9148 14.4095 12.3394 14.2336C12.764 14.0577 13.1499 13.7999 13.4749 13.4749C13.7999 13.1499 14.0577 12.764 14.2336 12.3394C14.4095 11.9148 14.5 11.4596 14.5 11C14.5 10.5404 14.4095 10.0852 14.2336 9.66061C14.0577 9.23597 13.7999 8.85013 13.4749 8.52513C13.1499 8.20012 12.764 7.94231 12.3394 7.76642C11.9148 7.59053 11.4596 7.5 11 7.5C10.0717 7.5 9.1815 7.86875 8.52513 8.52513C7.86875 9.1815 7.5 10.0717 7.5 11C7.5 11.9283 7.86875 12.8185 8.52513 13.4749C9.1815 14.1313 10.0717 14.5 11 14.5Z" fill="black" stroke="black" stroke-width="2" stroke-linejoin="round"/>
</mask>
<g mask="url(#mask0_430_1198)">
<path d="M-1 -1H23V23H-1V-1Z" fill="#1A1A1A"/>
</g>
</svg>
