<svg width="24" height="25" viewBox="0 0 24 25" fill="none" xmlns="http://www.w3.org/2000/svg">
<path d="M22.0002 11.47V13.53C22.0002 14.08 21.5602 14.53 21.0002 14.55H19.0402C17.9602 14.55 16.9702 13.76 16.8802 12.68C16.8202 12.05 17.0602 11.46 17.4802 11.05C17.8502 10.67 18.3602 10.45 18.9202 10.45H21.0002C21.5602 10.47 22.0002 10.92 22.0002 11.47Z" fill="#3870E8"/>
<path d="M20.47 16.05H19.04C17.14 16.05 15.54 14.62 15.38 12.8C15.29 11.76 15.67 10.72 16.43 9.98C17.07 9.32 17.96 8.95 18.92 8.95H20.47C20.76 8.95 21 8.71 20.97 8.42C20.75 5.99 19.14 4.33 16.75 4.05C16.51 4.01 16.26 4 16 4H7C6.72 4 6.45 4.02 6.19 4.06C3.64 4.38 2 6.28 2 9V16C2 18.76 4.24 21 7 21H16C18.8 21 20.73 19.25 20.97 16.58C21 16.29 20.76 16.05 20.47 16.05ZM13 10.25H7C6.59 10.25 6.25 9.91 6.25 9.5C6.25 9.09 6.59 8.75 7 8.75H13C13.41 8.75 13.75 9.09 13.75 9.5C13.75 9.91 13.41 10.25 13 10.25Z" fill="#3870E8"/>
</svg>
