<svg width="24" height="14" viewBox="0 0 24 14" fill="none" xmlns="http://www.w3.org/2000/svg">
<rect width="24" height="14" fill="#F5F5F5"/>
<g clip-path="url(#clip0_1_3)">
<rect width="1440" height="1217" transform="translate(-1277 -16)" fill="#FEFEFE"/>
<rect width="1440" height="46" transform="translate(-1277 -16)" fill="#6193FF"/>
<rect y="0.5" width="24" height="13" fill="white"/>
<mask id="mask0_1_3" style="mask-type:alpha" maskUnits="userSpaceOnUse" x="0" y="0" width="24" height="14">
<rect y="0.5" width="24" height="13" fill="white"/>
</mask>
<g mask="url(#mask0_1_3)">
<path d="M24.706 8.49976H0V9.50094H24.706V8.49976Z" fill="#CE0538"/>
<path d="M24.706 12.5005H0V13.4999H24.706V12.5005Z" fill="#CE0538"/>
<path d="M24.706 10.4995H0V11.5007H24.706V10.4995Z" fill="#CE0538"/>
<path d="M24.706 6.49927H0V7.49927H24.706V6.49927Z" fill="#CE0538"/>
<path d="M24.706 2.50049H0V3.49932H24.706V2.50049Z" fill="#CE0538"/>
<path d="M24.706 0.5H0V1.49942H24.706V0.5Z" fill="#CE0538"/>
<path d="M24.706 4.50024H0V5.50025H24.706V4.50024Z" fill="#CE0538"/>
<path d="M9.87121 0.5H0V7.48944H9.87121V0.5Z" fill="#003A78"/>
<path d="M1.58891 1.37744L1.6895 1.68627H2.01362L1.75127 1.87685L1.85127 2.18509L1.58891 1.9945L1.32656 2.18509L1.42715 1.87685L1.16479 1.68627H1.48891L1.58891 1.37744Z" fill="white"/>
<path d="M3.23477 1.37744L3.33477 1.68627H3.65889L3.39653 1.87685L3.49712 2.18509L3.23477 1.9945L2.97241 2.18509L3.07241 1.87685L2.81006 1.68627H3.13418L3.23477 1.37744Z" fill="white"/>
<path d="M4.87466 1.37744L4.97466 1.68627H5.29878L5.03642 1.87685L5.13701 2.18509L4.87466 1.9945L4.6123 2.18509L4.7123 1.87685L4.44995 1.68627H4.77407L4.87466 1.37744Z" fill="white"/>
<path d="M6.5341 1.37744L6.63469 1.68627H6.95881L6.69646 1.87685L6.79646 2.18509L6.5341 1.9945L6.27175 2.18509L6.37234 1.87685L6.10999 1.68627H6.4341L6.5341 1.37744Z" fill="white"/>
<path d="M8.17239 1.37744L8.27239 1.68627H8.59651L8.33415 1.87685L8.43474 2.18509L8.17239 1.9945L7.91003 2.18509L8.01003 1.87685L7.74768 1.68627H8.0718L8.17239 1.37744Z" fill="white"/>
<path d="M1.58891 2.80249L1.6895 3.11131H2.01362L1.75127 3.3019L1.85127 3.61014L1.58891 3.41955L1.32656 3.61014L1.42715 3.3019L1.16479 3.11131H1.48891L1.58891 2.80249Z" fill="white"/>
<path d="M3.23477 2.80249L3.33477 3.11131H3.65889L3.39653 3.3019L3.49712 3.61014L3.23477 3.41955L2.97241 3.61014L3.07241 3.3019L2.81006 3.11131H3.13418L3.23477 2.80249Z" fill="white"/>
<path d="M4.87466 2.80249L4.97466 3.11131H5.29878L5.03642 3.3019L5.13701 3.61014L4.87466 3.41955L4.6123 3.61014L4.7123 3.3019L4.44995 3.11131H4.77407L4.87466 2.80249Z" fill="white"/>
<path d="M6.5341 2.80249L6.63469 3.11131H6.95881L6.69646 3.3019L6.79646 3.61014L6.5341 3.41955L6.27175 3.61014L6.37234 3.3019L6.10999 3.11131H6.4341L6.5341 2.80249Z" fill="white"/>
<path d="M8.17239 2.80249L8.27239 3.11131H8.59651L8.33415 3.3019L8.43474 3.61014L8.17239 3.41955L7.91003 3.61014L8.01003 3.3019L7.74768 3.11131H8.0718L8.17239 2.80249Z" fill="white"/>
<path d="M1.58891 4.20337L1.6895 4.51161H2.01362L1.75127 4.70219L1.85127 5.01102L1.58891 4.82043L1.32656 5.01102L1.42715 4.70219L1.16479 4.51161H1.48891L1.58891 4.20337Z" fill="white"/>
<path d="M3.23477 4.20337L3.33477 4.51161H3.65889L3.39653 4.70219L3.49712 5.01102L3.23477 4.82043L2.97241 5.01102L3.07241 4.70219L2.81006 4.51161H3.13418L3.23477 4.20337Z" fill="white"/>
<path d="M4.87466 4.20337L4.97466 4.51161H5.29878L5.03642 4.70219L5.13701 5.01102L4.87466 4.82043L4.6123 5.01102L4.7123 4.70219L4.44995 4.51161H4.77407L4.87466 4.20337Z" fill="white"/>
<path d="M6.5341 4.20337L6.63469 4.51161H6.95881L6.69646 4.70219L6.79646 5.01102L6.5341 4.82043L6.27175 5.01102L6.37234 4.70219L6.10999 4.51161H6.4341L6.5341 4.20337Z" fill="white"/>
<path d="M8.17239 4.20337L8.27239 4.51161H8.59651L8.33415 4.70219L8.43474 5.01102L8.17239 4.82043L7.91003 5.01102L8.01003 4.70219L7.74768 4.51161H8.0718L8.17239 4.20337Z" fill="white"/>
<path d="M1.58891 5.61914L1.6895 5.92797H2.01362L1.75127 6.11855L1.85127 6.42679L1.58891 6.2362L1.32656 6.42679L1.42715 6.11855L1.16479 5.92797H1.48891L1.58891 5.61914Z" fill="white"/>
<path d="M3.23477 5.61914L3.33477 5.92797H3.65889L3.39653 6.11855L3.49712 6.42679L3.23477 6.2362L2.97241 6.42679L3.07241 6.11855L2.81006 5.92797H3.13418L3.23477 5.61914Z" fill="white"/>
<path d="M4.87466 5.61914L4.97466 5.92797H5.29878L5.03642 6.11855L5.13701 6.42679L4.87466 6.2362L4.6123 6.42679L4.7123 6.11855L4.44995 5.92797H4.77407L4.87466 5.61914Z" fill="white"/>
<path d="M6.5341 5.61914L6.63469 5.92797H6.95881L6.69646 6.11855L6.79646 6.42679L6.5341 6.2362L6.27175 6.42679L6.37234 6.11855L6.10999 5.92797H6.4341L6.5341 5.61914Z" fill="white"/>
<path d="M8.17239 5.61914L8.27239 5.92797H8.59651L8.33415 6.11855L8.43474 6.42679L8.17239 6.2362L7.91003 6.42679L8.01003 6.11855L7.74768 5.92797H8.0718L8.17239 5.61914Z" fill="white"/>
<path d="M0.763597 2.08716L0.864185 2.39539H1.1883L0.92595 2.58598L1.02595 2.89481L0.763597 2.70422L0.501243 2.89481L0.601831 2.58598L0.339478 2.39539H0.663596L0.763597 2.08716Z" fill="white"/>
<path d="M2.40945 2.08716L2.50945 2.39539H2.83416L2.57121 2.58598L2.6718 2.89481L2.40945 2.70422L2.14709 2.89481L2.24709 2.58598L1.98474 2.39539H2.30886L2.40945 2.08716Z" fill="white"/>
<path d="M4.04934 2.08716L4.14934 2.39539H4.47405L4.21111 2.58598L4.3117 2.89481L4.04934 2.70422L3.78699 2.89481L3.88699 2.58598L3.62463 2.39539H3.94875L4.04934 2.08716Z" fill="white"/>
<path d="M5.70879 2.08716L5.80938 2.39539H6.13349L5.87114 2.58598L5.97114 2.89481L5.70879 2.70422L5.44643 2.89481L5.54702 2.58598L5.28467 2.39539H5.60879L5.70879 2.08716Z" fill="white"/>
<path d="M7.34707 2.08716L7.44707 2.39539H7.77178L7.50884 2.58598L7.60942 2.89481L7.34707 2.70422L7.08472 2.89481L7.18472 2.58598L6.92236 2.39539H7.24707L7.34707 2.08716Z" fill="white"/>
<path d="M8.99648 2.08716L9.09648 2.39539H9.4206L9.15825 2.58598L9.25884 2.89481L8.99648 2.70422L8.73413 2.89481L8.83413 2.58598L8.57178 2.39539H8.8959L8.99648 2.08716Z" fill="white"/>
<path d="M0.763597 0.673096L0.864185 0.981332H1.1883L0.92595 1.17192L1.02595 1.48016L0.763597 1.28957L0.501243 1.48016L0.601831 1.17192L0.339478 0.981332H0.663596L0.763597 0.673096Z" fill="white"/>
<path d="M2.40945 0.673096L2.50945 0.981332H2.83416L2.57121 1.17192L2.6718 1.48016L2.40945 1.28957L2.14709 1.48016L2.24709 1.17192L1.98474 0.981332H2.30886L2.40945 0.673096Z" fill="white"/>
<path d="M4.04934 0.673096L4.14934 0.981332H4.47405L4.21111 1.17192L4.3117 1.48016L4.04934 1.28957L3.78699 1.48016L3.88699 1.17192L3.62463 0.981332H3.94875L4.04934 0.673096Z" fill="white"/>
<path d="M5.70879 0.673096L5.80938 0.981332H6.13349L5.87114 1.17192L5.97114 1.48016L5.70879 1.28957L5.44643 1.48016L5.54702 1.17192L5.28467 0.981332H5.60879L5.70879 0.673096Z" fill="white"/>
<path d="M7.34707 0.673096L7.44707 0.981332H7.77178L7.50884 1.17192L7.60942 1.48016L7.34707 1.28957L7.08472 1.48016L7.18472 1.17192L6.92236 0.981332H7.24707L7.34707 0.673096Z" fill="white"/>
<path d="M8.99648 0.673096L9.09648 0.981332H9.4206L9.15825 1.17192L9.25884 1.48016L8.99648 1.28957L8.73413 1.48016L8.83413 1.17192L8.57178 0.981332H8.8959L8.99648 0.673096Z" fill="white"/>
<path d="M0.763597 3.50586L0.864185 3.8141H1.1883L0.92595 4.00468L1.02595 4.31351L0.763597 4.12292L0.501243 4.31351L0.601831 4.00468L0.339478 3.8141H0.663596L0.763597 3.50586Z" fill="white"/>
<path d="M2.40945 3.50586L2.50945 3.8141H2.83416L2.57121 4.00468L2.6718 4.31351L2.40945 4.12292L2.14709 4.31351L2.24709 4.00468L1.98474 3.8141H2.30886L2.40945 3.50586Z" fill="white"/>
<path d="M4.04934 3.50586L4.14934 3.8141H4.47405L4.21111 4.00468L4.3117 4.31351L4.04934 4.12292L3.78699 4.31351L3.88699 4.00468L3.62463 3.8141H3.94875L4.04934 3.50586Z" fill="white"/>
<path d="M5.70879 3.50586L5.80938 3.8141H6.13349L5.87114 4.00468L5.97114 4.31351L5.70879 4.12292L5.44643 4.31351L5.54702 4.00468L5.28467 3.8141H5.60879L5.70879 3.50586Z" fill="white"/>
<path d="M7.34707 3.50586L7.44707 3.8141H7.77178L7.50884 4.00468L7.60942 4.31351L7.34707 4.12292L7.08472 4.31351L7.18472 4.00468L6.92236 3.8141H7.24707L7.34707 3.50586Z" fill="white"/>
<path d="M8.99648 3.50586L9.09648 3.8141H9.4206L9.15825 4.00468L9.25884 4.31351L8.99648 4.12292L8.73413 4.31351L8.83413 4.00468L8.57178 3.8141H8.8959L8.99648 3.50586Z" fill="white"/>
<path d="M0.763597 4.92676L0.864185 5.23499H1.1883L0.92595 5.42558L1.02595 5.73441L0.763597 5.54323L0.501243 5.73441L0.601831 5.42558L0.339478 5.23499H0.663596L0.763597 4.92676Z" fill="white"/>
<path d="M2.40945 4.92676L2.50945 5.23499H2.83416L2.57121 5.42558L2.6718 5.73441L2.40945 5.54323L2.14709 5.73441L2.24709 5.42558L1.98474 5.23499H2.30886L2.40945 4.92676Z" fill="white"/>
<path d="M4.04934 4.92676L4.14934 5.23499H4.47405L4.21111 5.42558L4.3117 5.73441L4.04934 5.54323L3.78699 5.73441L3.88699 5.42558L3.62463 5.23499H3.94875L4.04934 4.92676Z" fill="white"/>
<path d="M5.70879 4.92676L5.80938 5.23499H6.13349L5.87114 5.42558L5.97114 5.73441L5.70879 5.54323L5.44643 5.73441L5.54702 5.42558L5.28467 5.23499H5.60879L5.70879 4.92676Z" fill="white"/>
<path d="M7.34707 4.92676L7.44707 5.23499H7.77178L7.50884 5.42558L7.60942 5.73441L7.34707 5.54323L7.08472 5.73441L7.18472 5.42558L6.92236 5.23499H7.24707L7.34707 4.92676Z" fill="white"/>
<path d="M8.99648 4.92676L9.09648 5.23499H9.4206L9.15825 5.42558L9.25884 5.73441L8.99648 5.54323L8.73413 5.73441L8.83413 5.42558L8.57178 5.23499H8.8959L8.99648 4.92676Z" fill="white"/>
<path d="M0.763597 6.31836L0.864185 6.6266H1.1883L0.92595 6.81718L1.02595 7.12601L0.763597 6.93542L0.501243 7.12601L0.601831 6.81718L0.339478 6.6266H0.663596L0.763597 6.31836Z" fill="white"/>
<path d="M2.40945 6.31836L2.50945 6.6266H2.83416L2.57121 6.81718L2.6718 7.12601L2.40945 6.93542L2.14709 7.12601L2.24709 6.81718L1.98474 6.6266H2.30886L2.40945 6.31836Z" fill="white"/>
<path d="M4.04934 6.31836L4.14934 6.6266H4.47405L4.21111 6.81718L4.3117 7.12601L4.04934 6.93542L3.78699 7.12601L3.88699 6.81718L3.62463 6.6266H3.94875L4.04934 6.31836Z" fill="white"/>
<path d="M5.70879 6.31836L5.80938 6.6266H6.13349L5.87114 6.81718L5.97114 7.12601L5.70879 6.93542L5.44643 7.12601L5.54702 6.81718L5.28467 6.6266H5.60879L5.70879 6.31836Z" fill="white"/>
<path d="M7.34707 6.31836L7.44707 6.6266H7.77178L7.50884 6.81718L7.60942 7.12601L7.34707 6.93542L7.08472 7.12601L7.18472 6.81718L6.92236 6.6266H7.24707L7.34707 6.31836Z" fill="white"/>
<path d="M8.99648 6.31836L9.09648 6.6266H9.4206L9.15825 6.81718L9.25884 7.12601L8.99648 6.93542L8.73413 7.12601L8.83413 6.81718L8.57178 6.6266H8.8959L8.99648 6.31836Z" fill="white"/>
</g>
</g>
<defs>
<clipPath id="clip0_1_3">
<rect width="1440" height="1217" fill="white" transform="translate(-1277 -16)"/>
</clipPath>
</defs>
</svg>
