<svg width="20" height="21" viewBox="0 0 20 21" fill="none" xmlns="http://www.w3.org/2000/svg">
<path d="M13.4916 2.13977H6.50829C3.47496 2.13977 1.66663 3.9481 1.66663 6.98144V13.9564C1.66663 16.9981 3.47496 18.8064 6.50829 18.8064H13.4833C16.5166 18.8064 18.325 16.9981 18.325 13.9648V6.98144C18.3333 3.9481 16.525 2.13977 13.4916 2.13977ZM9.99996 13.7064C8.21663 13.7064 6.76663 12.2564 6.76663 10.4731C6.76663 8.68977 8.21663 7.23977 9.99996 7.23977C11.7833 7.23977 13.2333 8.68977 13.2333 10.4731C13.2333 12.2564 11.7833 13.7064 9.99996 13.7064ZM14.9333 6.20644C14.8916 6.30644 14.8333 6.3981 14.7583 6.48144C14.675 6.55644 14.5833 6.61477 14.4833 6.65644C14.3833 6.6981 14.275 6.7231 14.1666 6.7231C13.9416 6.7231 13.7333 6.63977 13.575 6.48144C13.5 6.3981 13.4416 6.30644 13.4 6.20644C13.3583 6.10644 13.3333 5.9981 13.3333 5.88977C13.3333 5.78144 13.3583 5.6731 13.4 5.5731C13.4416 5.46477 13.5 5.38144 13.575 5.2981C13.7666 5.10644 14.0583 5.01477 14.325 5.0731C14.3833 5.08144 14.4333 5.0981 14.4833 5.1231C14.5333 5.13977 14.5833 5.16477 14.6333 5.1981C14.675 5.2231 14.7166 5.26477 14.7583 5.2981C14.8333 5.38144 14.8916 5.46477 14.9333 5.5731C14.975 5.6731 15 5.78144 15 5.88977C15 5.9981 14.975 6.10644 14.9333 6.20644Z" fill="#3D7BFF"/>
</svg>
